<?xml version="1.0" encoding="utf-8"?>
<!-- Generator: Adobe Illustrator 18.0.0, SVG Export Plug-In . SVG Version: 6.00 Build 0)  -->
<!DOCTYPE svg PUBLIC "-//W3C//DTD SVG 1.1//EN" "http://www.w3.org/Graphics/SVG/1.1/DTD/svg11.dtd">
<svg version="1.1" id="Laag_1" xmlns="http://www.w3.org/2000/svg" xmlns:xlink="http://www.w3.org/1999/xlink" x="0px" y="0px"
	 viewBox="0 163.4 640 316.6" enable-background="new 0 163.4 640 316.6" xml:space="preserve">
<g>
	<g>
		<path fill="#49BBB2" d="M1.7,330.1c0-33.3,0-66.5,0-99.6c0-34,26.1-63.7,58.5-66.7c36.7-3.3,67.8,19,74.4,53.7
			c0.9,4.9,1.3,10.1,1.3,15c0.1,64.7,0,129.4,0,194.1c0,2.6-0.1,5.3-0.8,7.8c-1.3,5-4.9,7.1-10,6.7c-5-0.4-8-3.3-8.7-8.3
			c-0.3-2.1-0.1-4.4-0.1-6.6c0-64.9,0-129.8,0-194.7c0-25.5-17.2-44.9-42.2-48.4c-26.1-3.4-51.6,17.4-52.6,43.8
			c-0.7,15.2-0.3,30.5-0.3,45.5c0,53.1-0.1,106.1,0,159.1c0,19.9,17.6,33.3,36.3,27.8c11-3.2,18.9-12.9,20.3-25.1
			c0.3-2,0.3-4,0.3-5.9c0-64.4,0-129,0-193.4c0-2.2-0.1-4.5-0.5-6.6c-1.2-5-4.6-7.7-9.6-7.3c-5,0.4-7.9,3.4-8.4,8.6
			c-0.1,2,0,4,0,5.9c0,63.7,0,127.7,0,191.4c0,2.2,0.1,4.5-0.3,6.6c-1.1,5.4-4.6,8.7-10.3,8.3c-5.4-0.4-8.7-3.8-9.2-9.6
			c-0.1-0.9,0-1.7,0-2.6c0-66.5,0-133,0-199.5c0-11.3,5-20.1,14.8-25.5c10.1-5.5,20.3-5,30.1,1.2c8.8,5.8,12.8,14.4,12.8,24.7
			c0.1,67.4,0.3,134.7-0.1,202.1c-0.1,26.8-22.4,48-48.5,47.3C22.1,479.1,1.7,457.5,2,430.1C2,397,1.7,363.5,1.7,330.1L1.7,330.1z"
			/>
	</g>
</g>
<g>
	<path fill="#2A3571" d="M167.8,252.9c12.4,1.1,19.3,1.5,19.4-12.9v-69.4h19v77.7c0,6.4-0.4,15.8-7.2,20.1c-7.2,4.7-24.4,4-31.6-0.7
		L167.8,252.9z"/>
	<path fill="#2A3571" d="M250.4,197.5c24.9,0,33,9.2,33,38.1c0,27-7.6,36-33,36c-24.9,0-33-10.1-33-36
		C217.5,205.9,226.1,197.5,250.4,197.5z M250.4,256.1c10.8,0,13.9-1.4,13.9-20.5c0-20.4-2.4-22.7-13.9-22.7
		c-11.3,0-13.9,2.3-13.9,22.7C236.5,254.3,240.3,256.1,250.4,256.1z"/>
	<path fill="#2A3571" d="M294.7,163.4h18.9v38.5c6.5-3.2,15.8-4.8,21.9-4.8c20,0,23.5,15.2,23.5,37.8c0,22.1-5.7,36.9-23.5,36.9
		c-8.6,0-17.2-4.5-21.7-8.2l-3.4,7.4h-15.6L294.7,163.4L294.7,163.4z M330.6,255.3c6.1,0,9.5-4.9,9.5-21.1c0-18.6-3.4-22.1-9.5-22.1
		c-6.7,0-12,0.8-16.8,2.7v36C317.8,253.6,323.3,255.3,330.6,255.3z"/>
	<path fill="#49BBB2" d="M372.3,170.6h19v43h34.1v-43h19V271h-19v-39.7h-34.1V271h-19V170.6z"/>
	<path fill="#49BBB2" d="M455.5,198.2h19V247c0,7.3,3.3,9.8,8,9.8c7.6,0,11.8-1.9,17.4-6.3v-52.3h19v72.9h-15.3l-3.7-7.7
		c-7.2,4.2-12,8.9-23,8.9c-16.7,0-21.5-11.6-21.5-25.6L455.5,198.2L455.5,198.2L455.5,198.2z"/>
	<path fill="#49BBB2" d="M531.4,163.6h19V242c0,10.6,2.4,12.9,6.2,14.2c0,0,8.1,2.9,9.1,2.9V271h-15.8c-11.8,0-18.6-6.6-18.6-25.9
		L531.4,163.6L531.4,163.6z"/>
	<path fill="#49BBB2" d="M574,198.2h15.6l3.3,7.3c4.5-3.6,13.3-8.1,21.9-8.1c17.8,0,23.5,15.1,23.5,36.9c0,21.1-3.5,37.8-23.5,37.8
		c-6.1,0-15.3-1.6-21.9-4.7V308H574V198.2L574,198.2z M609.8,256.9c6,0,9.5-3.4,9.5-21.9c0-16.3-3.3-21.2-9.5-21.2
		c-7.2,0-12.9,1.8-17,4.4v36C597.9,256.1,603.2,256.9,609.8,256.9z"/>
</g>
<g>
	<path fill="#2A3571" d="M166.9,290.5h26.7l16.7,68.6l16.6-68.6h26.6l9.3,100.3h-18.9l-6.6-67.1l-16.2,67.1h-21.4l-16.8-67.1
		l-5.9,67.1h-18.9L166.9,290.5z"/>
	<path fill="#2A3571" d="M271.2,365.4c0-10.8,5.8-20,21.4-20c0,0,21.4,0.1,21.4,0c0,0,0.1-4.5,0-4.7c0-7.8-3.7-8.9-9.8-8.9
		c-6.4,0-24.7,1.1-30.6,1.5v-11.9c9.7-3.7,19.6-4.8,33.1-4.8c15.6,0,26.3,5.3,26.3,23.4v50.8h-15.2l-4-7.9c-0.8,1.5-11.1,9-22.2,8.8
		c-14-0.4-20.5-10-20.5-19.3V365.4L271.2,365.4z M297.3,376.3c7.9,0,16.7-5.8,16.7-5.8v-13.3l-17.7,1.4c-5.1,0.4-5.9,4.2-5.9,7.4
		v3.6C290.4,375.6,293.8,376.3,297.3,376.3z"/>
	<path fill="#2A3571" d="M342.3,365.4c0-10.8,5.8-20,21.4-20c0,0,21.4,0.1,21.4,0c0,0,0.1-4.5,0-4.7c0-7.8-3.7-8.9-9.8-8.9
		c-6.4,0-24.7,1.1-30.6,1.5v-11.9c9.7-3.7,19.6-4.8,33.1-4.8c15.6,0,26.3,5.3,26.3,23.4v50.8H389l-4-7.9c-0.8,1.5-11.1,9-22.2,8.8
		c-14-0.4-20.5-10-20.5-19.3V365.4L342.3,365.4z M368.4,376.3c7.9,0,16.7-5.8,16.7-5.8v-13.3l-17.7,1.4c-5.1,0.4-5.9,4.2-5.9,7.4
		v3.6C361.6,375.6,364.8,376.3,368.4,376.3z"/>
	<path fill="#2A3571" d="M411.4,321.8l11.8-4l3.1-20.3h16v20.3h16.3v14.7h-16.3v29.3c0,10.8,2.5,13,6.2,14.4c0,0,8.2,2.9,9.2,2.9
		V391H441c-10.8,0-17.8-6.7-17.8-26v-32.3h-11.7V321.8L411.4,321.8z"/>
	<path fill="#2A3571" d="M468,295.1c0-2.2,1.1-3.6,3.3-3.6h14.4c2.1,0,3.1,1.6,3.1,3.6v12.1c0,2.1-1.2,3.2-3.1,3.2h-14.4
		c-1.9,0-3.3-1.2-3.3-3.2V295.1L468,295.1z M468.8,318.1H488v73.4c0.1,11.8-0.1,25.6-5.1,36.4h-14.1L468.8,318.1L468.8,318.1z"/>
	<path fill="#2A3571" d="M531.8,317.6c21.1,0,30.9,2.3,30.9,26.4c0,13-7.1,18.4-20.3,18.4h-23.1c0,13,4.9,13.8,15.3,13.8
		c11.1,0,16.4,0.1,26.7-1.5v13c-10.4,3.8-25.9,3.8-37.3,3.8c-18.5,0-24-10.8-24-37.4C500,322.8,508.8,317.6,531.8,317.6z
		 M537.5,348.4c4,0,6-1.9,6-5.5c0-9.2-1.4-10.9-10.6-10.9c-10.2,0-13.8,0.5-13.7,16.3H537.5z"/>
</g>
<g enable-background="new    ">
	<path fill="#49BBB2" d="M160.4,469.1l28.3-40.1h-28.3v-10.9H203V429l-27,40.1h27V480h-42.6V469.1z"/>
</g>
<g enable-background="new    ">
	<path fill="#49BBB2" d="M226.1,440c13.7,0,18.1,5,18.1,20.8c0,14.7-4.2,19.6-18.1,19.6c-13.7,0-18.1-5.5-18.1-19.6
		C208,444.5,212.7,440,226.1,440z M226.1,471.9c5.9,0,7.6-0.7,7.6-11.2c0-11.1-1.3-12.4-7.6-12.4c-6.2,0-7.6,1.3-7.6,12.4
		C218.5,471,220.6,471.9,226.1,471.9z"/>
	<path fill="#49BBB2" d="M267.2,440.1c11.5,0,16.8,1.3,16.8,14.4c0,7.1-3.9,10-11.1,10h-12.6c0,7.1,2.7,7.5,8.4,7.5
		c6,0,9,0.1,14.6-0.8v7.1c-5.6,2.1-14.1,2.1-20.3,2.1c-10.1,0-13.1-5.8-13.1-20.4C249.9,443,254.6,440.1,267.2,440.1z M270.2,456.9
		c2.2,0,3.3-1,3.3-3c0-5-0.7-5.9-5.7-5.9c-5.5,0-7.5,0.3-7.5,8.9H270.2z"/>
	<path fill="#49BBB2" d="M287.3,442.4l6.4-2.2l1.7-11h8.7v11h8.9v8h-8.9v15.9c0,5.8,1.3,7.1,3.4,7.8c0,0,4.5,1.6,5,1.6v6.4h-9.1
		c-5.8,0-9.7-3.7-9.7-14.2v-17.5h-6.4V442.4z"/>
	<path fill="#49BBB2" d="M334.8,440.1c11.5,0,16.8,1.3,16.8,14.4c0,7.1-3.9,10-11,10h-12.6c0,7.1,2.7,7.5,8.4,7.5
		c6,0,9,0.1,14.6-0.8v7.1c-5.6,2.1-14.1,2.1-20.3,2.1c-10.1,0-13.1-5.8-13.1-20.4C317.5,443,322.3,440.1,334.8,440.1z M337.9,456.9
		c2.2,0,3.3-1,3.3-3c0-5-0.7-5.9-5.7-5.9c-5.5,0-7.5,0.3-7.5,8.9H337.9z"/>
	<path fill="#49BBB2" d="M357.3,440.4h8.8l1.6,5c2.7-2.7,6.4-5.4,11.3-5.4c1.7,0,3.4,0,4.4,0.4v10.1c-1-0.1-3.4-0.2-5.7-0.2
		c-4.3,0-7.5,0.7-10,4.4V480h-10.5V440.4z"/>
	<path fill="#49BBB2" d="M388.4,440.4h8.4l2.1,4.3c3.5-2.5,6.3-4.9,12.3-4.9c5.1,0,8.7,1.9,10.3,5.2c3.5-2.6,8.1-5.2,14.3-5.2
		c8.7,0,11.8,6,11.8,14V480h-10.5v-26.4c0-3.7-1.7-5.4-4.4-5.4c-4,0-6.9,0.7-9.7,3.1c0,0.3,0.1,1.9,0.1,2.3V480h-10.5v-26.4
		c0-3.7-1.8-5.4-4.4-5.4c-4.1,0-6.3,1-9.3,3.4V480h-10.5V440.4z"/>
	<path fill="#49BBB2" d="M470.5,440.1c11.5,0,16.8,1.3,16.8,14.4c0,7.1-3.9,10-11,10h-12.6c0,7.1,2.7,7.5,8.4,7.5
		c6,0,9,0.1,14.6-0.8v7.1c-5.6,2.1-14.1,2.1-20.3,2.1c-10.1,0-13.1-5.8-13.1-20.4C453.2,443,457.9,440.1,470.5,440.1z M473.5,456.9
		c2.2,0,3.3-1,3.3-3c0-5-0.7-5.9-5.7-5.9c-5.5,0-7.5,0.3-7.5,8.9H473.5z"/>
	<path fill="#49BBB2" d="M509.7,440.1c11.5,0,16.8,1.3,16.8,14.4c0,7.1-3.9,10-11,10h-12.6c0,7.1,2.7,7.5,8.4,7.5
		c6,0,9,0.1,14.6-0.8v7.1c-5.6,2.1-14.1,2.1-20.3,2.1c-10.1,0-13.1-5.8-13.1-20.4C492.4,443,497.1,440.1,509.7,440.1z M512.7,456.9
		c2.2,0,3.3-1,3.3-3c0-5-0.7-5.9-5.7-5.9c-5.5,0-7.5,0.3-7.5,8.9H512.7z"/>
	<path fill="#49BBB2" d="M532.1,440.4h8.8l1.6,5c2.7-2.7,6.4-5.4,11.3-5.4c1.7,0,3.4,0,4.4,0.4v10.1c-1-0.1-3.4-0.2-5.7-0.2
		c-4.3,0-7.5,0.7-10,4.4V480h-10.5V440.4z"/>
</g>
</svg>
